<?xml version="1.0" encoding="utf-8"?>
<!-- Generator: Adobe Illustrator 22.1.0, SVG Export Plug-In . SVG Version: 6.00 Build 0)  -->
<svg version="1.1" id="Layer_1" xmlns="http://www.w3.org/2000/svg" xmlns:xlink="http://www.w3.org/1999/xlink" x="0px" y="0px"
	 width="167.3px" height="30.7px" viewBox="0 0 167.3 30.7" style="enable-background:new 0 0 167.3 30.7;" xml:space="preserve">
<style type="text/css">
	.st0{fill:#FFFFFF;}
	.st1{fill:#0000FF;}
	.st2{fill:#FF0000;}
	.st3{fill:#FF00FF;}
	.st4{fill:#21ED20;}
	.st5{fill:#00FFFF;}
</style>
<title>CadentLogo</title>
<path class="st0" d="M46.3,15C46.3,8,51.4,4,58,4c2.8-0.1,5.5,0.8,7.9,2.3l-3,4.9c-1.3-1-3-1.6-4.6-1.6c-3.1,0-5.8,1.9-5.8,5.4
	s2.7,5.4,5.8,5.4c1.6,0,3.2-0.6,4.5-1.6l3,4.9c-2.3,1.6-5.1,2.4-7.9,2.3C51.4,26.1,46.3,22.1,46.3,15z"/>
<path class="st0" d="M81.9,21.7h-7.3l-1.3,4h-6.4l8.3-21.4h6.3l8.3,21.4h-6.4L81.9,21.7z M80.3,17l-2.1-6.6L76,17H80.3z"/>
<path class="st0" d="M110,15c0,6.7-4.5,10.7-11.6,10.7h-7.3V4.3h7.3C105.6,4.3,110,8.4,110,15z M97,9.6v10.9h1.5
	c3.3,0,5.4-1.8,5.4-5.4s-2.2-5.4-5.4-5.4H97z"/>
<path class="st0" d="M126.1,20.4v5.3h-13.9V4.3h13.6v5.3h-7.8v2.8h6.5v5h-6.8v3.1L126.1,20.4z"/>
<path class="st0" d="M148.7,25.7h-4.8l-9.7-11.5h-0.1v11.5h-5.6V4.3h4.5l10,11.5h0.1V4.3h5.6L148.7,25.7z"/>
<path class="st0" d="M167.3,9.6h-5.6v16.1h-5.6V9.6h-5.3V4.3h16.4V9.6z"/>
<path class="st1" d="M1.5,27.5c0.4,1,1.3,1.8,2.4,2c2.9,0.6,5.9,0.9,8.9,1l3.5-1.6L37.7,6.4l0.4-1.3c-0.1-0.7-0.3-1.3-0.5-2
	c-0.4-1-1.3-1.8-2.4-2c-2.9-0.6-5.9-0.9-8.9-1l-4,2.6L3.9,21.3L1,25.6C1.1,26.2,1.3,26.9,1.5,27.5z"/>
<path class="st2" d="M19.5,0C9.6,0,5,0.9,4,1.2c-1.1,0.2-2,1-2.4,2C1.1,4.3,0,8.2,0,15.2c0,2,0.1,3.9,0.2,5.4l1.6,0.2l17.7-18
	L20.6,0L19.5,0z"/>
<path class="st3" d="M0.2,20.5c0.1,1.7,0.4,3.4,0.8,5L26.2,0.2C24.6,0.1,22.7,0,20.6,0L0.2,20.5z"/>
<path class="st4" d="M19.5,30.7c9.9,0,14.5-0.9,15.6-1.2c1.1-0.2,2-1,2.4-2c0.4-1.1,1.5-5,1.5-12c0-2-0.1-3.9-0.2-5.4L37.2,10
	L19.5,28l-1.1,2.7L19.5,30.7z"/>
<path class="st5" d="M38.8,10.1c-0.1-1.7-0.4-3.4-0.8-5L12.9,30.5c1.6,0.1,3.5,0.1,5.6,0.2L38.8,10.1z"/>
</svg>
